<svg viewBox="0 0 860 400" xmlns="http://www.w3.org/2000/svg" font-family="'JetBrains Mono','Fira Code','Consolas',monospace">
<defs>
  <linearGradient id="bg3" x1="0" y1="0" x2="0" y2="1">
    <stop offset="0%" stop-color="#0b0b14"/>
    <stop offset="100%" stop-color="#0e0e1a"/>
  </linearGradient>
  <linearGradient id="devpanel" x1="0" y1="0" x2="0" y2="1">
    <stop offset="0%" stop-color="#09090f"/>
    <stop offset="100%" stop-color="#070712"/>
  </linearGradient>
  <linearGradient id="prodpanel" x1="0" y1="0" x2="0" y2="1">
    <stop offset="0%" stop-color="#06100a"/>
    <stop offset="100%" stop-color="#040d07"/>
  </linearGradient>
  <pattern id="dots3" width="20" height="20" patternUnits="userSpaceOnUse">
    <circle cx="10" cy="10" r="0.7" fill="#00e5a0" fill-opacity="0.05"/>
  </pattern>
  <filter id="glow3">
    <feGaussianBlur stdDeviation="2" result="b"/>
    <feMerge><feMergeNode in="b"/><feMergeNode in="SourceGraphic"/></feMerge>
  </filter>
</defs>

<rect width="860" height="400" rx="12" fill="url(#bg3)"/>
<rect width="860" height="400" rx="12" fill="url(#dots3)"/>
<rect width="860" height="400" rx="12" fill="none" stroke="#1c1c2e" stroke-width="1.5"/>

<!-- header -->
<rect x="50" y="22" width="760" height="38" rx="6" fill="#0e0e1a" stroke="#1c1c2e" stroke-width="0.8"/>
<circle cx="68" cy="41" r="4.5" fill="#00e5a0" filter="url(#glow3)"/>
<text x="82" y="46" font-size="13" fill="#00e5a0" font-weight="600" letter-spacing="0.5">Built-in structured logging — zero config</text>
<text x="800" y="46" text-anchor="end" font-size="10" fill="#252540" letter-spacing="1">auto-detected from NODE_ENV</text>

<!-- ── DEV PANEL ── -->
<rect x="50" y="74" width="370" height="238" rx="6" fill="url(#devpanel)" stroke="#4a4a8a" stroke-width="0.8" stroke-opacity="0.6"/>
<rect x="50" y="74" width="370" height="24" rx="6" fill="#1c1c3a" fill-opacity="0.8"/>
<text x="70" y="90" font-size="11" fill="#8888cc" font-weight="600" letter-spacing="0.5">DEVELOPMENT</text>
<text x="408" y="90" text-anchor="end" font-size="9.5" fill="#3a3a5a">NODE_ENV=development</text>

<!-- dev log lines -->
<!-- DEBUG line -->
<text x="68" y="116" font-size="11" fill="#3a3a56">09:44:57.123</text>
<rect x="152" y="105" width="50" height="14" rx="2" fill="#1a1a3a"/>
<text x="177" y="116" text-anchor="middle" font-size="10" fill="#5c8ccc" font-weight="600">[DEBUG]</text>
<text x="210" y="116" font-size="11" fill="#4a6a8a">&gt;&gt;</text>
<text x="228" y="116" font-size="11" fill="#8888aa">POST</text>
<text x="268" y="116" font-size="11" fill="#6a6a8a">/api/v1/users</text>
<text x="390" y="116" text-anchor="end" font-size="10" fill="#2a2a46">[req_019c]</text>

<!-- INFO line -->
<text x="68" y="134" font-size="11" fill="#3a3a56">09:44:57.125</text>
<rect x="152" y="123" width="44" height="14" rx="2" fill="#0a2a14"/>
<text x="174" y="134" text-anchor="middle" font-size="10" fill="#00c070" font-weight="600">[INFO]</text>
<text x="204" y="134" font-size="11" fill="#4a8a6a">&lt;&lt;</text>
<rect x="218" y="124" width="24" height="13" rx="2" fill="#0a2a14"/>
<text x="230" y="134" text-anchor="middle" font-size="10.5" fill="#00e5a0" font-weight="600">201</text>
<text x="250" y="134" font-size="11" fill="#8888aa">POST</text>
<text x="290" y="134" font-size="11" fill="#6a6a8a">/api/v1/users</text>
<text x="362" y="134" font-size="11" fill="#3a5a3a">2ms</text>
<text x="390" y="134" text-anchor="end" font-size="10" fill="#2a2a46">[req_019c]</text>

<!-- WARN 404 line -->
<text x="68" y="152" font-size="11" fill="#3a3a56">09:44:57.400</text>
<rect x="152" y="141" width="46" height="14" rx="2" fill="#2a1a08"/>
<text x="175" y="152" text-anchor="middle" font-size="10" fill="#cc8800" font-weight="600">[WARN]</text>
<text x="206" y="152" font-size="11" fill="#8a7a4a">&lt;&lt;</text>
<rect x="218" y="142" width="24" height="13" rx="2" fill="#2a1a08"/>
<text x="230" y="152" text-anchor="middle" font-size="10.5" fill="#ffc84a" font-weight="600">404</text>
<text x="250" y="152" font-size="11" fill="#8888aa">GET</text>
<text x="282" y="152" font-size="11" fill="#6a6a8a">/api/v1/users/xx</text>
<text x="362" y="152" font-size="11" fill="#5a4a2a">12ms</text>
<text x="390" y="152" text-anchor="end" font-size="10" fill="#2a2a46">[req_019c]</text>

<!-- ERROR 500 line -->
<rect x="60" y="160" width="350" height="14" rx="2" fill="#ff3b3b" fill-opacity="0.06"/>
<text x="68" y="170" font-size="11" fill="#3a3a56">09:44:57.900</text>
<rect x="152" y="159" width="50" height="14" rx="2" fill="#2a0808"/>
<text x="177" y="170" text-anchor="middle" font-size="10" fill="#ff5050" font-weight="600">[ERROR]</text>
<text x="210" y="170" font-size="11" fill="#8a4a4a">&lt;&lt;</text>
<rect x="218" y="160" width="24" height="13" rx="2" fill="#2a0808"/>
<text x="230" y="170" text-anchor="middle" font-size="10.5" fill="#ff3b3b" font-weight="600">500</text>
<text x="250" y="170" font-size="11" fill="#8888aa">GET</text>
<text x="282" y="170" font-size="11" fill="#6a6a8a">/api/v1/crash</text>
<text x="363" y="170" font-size="11" fill="#6a3a3a">1ms</text>
<text x="390" y="170" text-anchor="end" font-size="10" fill="#2a2a46">[req_019c]</text>

<!-- SLOW line -->
<rect x="60" y="178" width="350" height="14" rx="2" fill="#ffc84a" fill-opacity="0.05"/>
<text x="68" y="188" font-size="11" fill="#3a3a56">09:44:57.800</text>
<rect x="152" y="177" width="46" height="14" rx="2" fill="#2a1a08"/>
<text x="175" y="188" text-anchor="middle" font-size="10" fill="#cc8800" font-weight="600">[WARN]</text>
<text x="206" y="188" font-size="11" fill="#8a7a4a">&lt;&lt;</text>
<rect x="218" y="178" width="24" height="13" rx="2" fill="#0a2a14"/>
<text x="230" y="188" text-anchor="middle" font-size="10.5" fill="#00e5a0" font-weight="600">200</text>
<text x="250" y="188" font-size="11" fill="#8888aa">GET</text>
<text x="282" y="188" font-size="11" fill="#6a6a8a">/api/v1/data</text>
<text x="346" y="188" font-size="11" fill="#6a5a2a">1523ms</text>
<rect x="396" y="178" width="20" height="13" rx="2" fill="#3a2a08"/>
<text x="406" y="188" text-anchor="middle" font-size="9" fill="#ffc84a" font-weight="600">SLOW</text>

<!-- legend -->
<line x1="68" y1="210" x2="408" y2="210" stroke="#1c1c2e" stroke-width="0.6"/>
<text x="68"  y="226" font-size="10" fill="#3a3a5a">&gt;&gt; = request arriving</text>
<text x="208" y="226" font-size="10" fill="#3a3a5a">&lt;&lt; = response leaving</text>
<text x="68"  y="242" font-size="10" fill="#2a4a6a">[DEBUG]</text><text x="115" y="242" font-size="10" fill="#2a2a46"> incoming req logged</text>
<text x="68"  y="258" font-size="10" fill="#1a5a3a">[INFO]</text><text x="108" y="258" font-size="10" fill="#2a2a46">  2xx responses</text>
<text x="68"  y="274" font-size="10" fill="#5a4a1a">[WARN]</text><text x="108" y="274" font-size="10" fill="#2a2a46">  4xx + SLOW responses</text>
<text x="68"  y="290" font-size="10" fill="#5a1a1a">[ERROR]</text><text x="115" y="290" font-size="10" fill="#2a2a46"> 5xx + full stack in logs</text>
<text x="68"  y="306" font-size="10" fill="#3a3a56">Colors only activate when stdout is a TTY</text>

<!-- ── PROD PANEL ── -->
<rect x="440" y="74" width="370" height="238" rx="6" fill="url(#prodpanel)" stroke="#00e5a0" stroke-width="0.8" stroke-opacity="0.4"/>
<rect x="440" y="74" width="370" height="24" rx="6" fill="#00e5a0" fill-opacity="0.08"/>
<text x="460" y="90" font-size="11" fill="#00c070" font-weight="600" letter-spacing="0.5">PRODUCTION</text>
<text x="798" y="90" text-anchor="end" font-size="9.5" fill="#1a4030">NODE_ENV=production</text>

<!-- prod JSON lines -->
<text x="458" y="116" font-size="10.5" fill="#3a5a46">{"level":</text><text x="513" y="116" font-size="10.5" fill="#8ec07c">"info"</text><text x="543" y="116" font-size="10.5" fill="#3a5a46">,"time":</text><text x="591" y="116" font-size="10.5" fill="#8ec07c">"2026-..."</text><text x="643" y="116" font-size="10.5" fill="#3a5a46">,</text>

<rect x="450" y="120" width="352" height="13" rx="2" fill="#00e5a0" fill-opacity="0.05"/>
<text x="458" y="130" font-size="10.5" fill="#3a5a46">"requestId":</text><text x="525" y="130" font-size="10.5" fill="#8ec07c">"req_019c..."</text><text x="600" y="130" font-size="10.5" fill="#3a5a46">,"method":</text><text x="651" y="130" font-size="10.5" fill="#8ec07c">"POST"</text>

<text x="458" y="148" font-size="10.5" fill="#3a5a46">"endpoint":</text><text x="520" y="148" font-size="10.5" fill="#8ec07c">"/api/v1/users"</text><text x="605" y="148" font-size="10.5" fill="#3a5a46">,"status":</text><text x="656" y="148" font-size="10.5" fill="#00e5a0">201</text>

<rect x="450" y="152" width="352" height="13" rx="2" fill="#00e5a0" fill-opacity="0.05"/>
<text x="458" y="163" font-size="10.5" fill="#3a5a46">"duration_ms":</text><text x="540" y="163" font-size="10.5" fill="#00e5a0">2</text><text x="549" y="163" font-size="10.5" fill="#3a5a46">}</text>

<text x="458" y="181" font-size="10.5" fill="#3a5a46">{"level":</text><text x="513" y="181" font-size="10.5" fill="#cc8800">"warn"</text><text x="543" y="181" font-size="10.5" fill="#3a5a46">,"requestId":</text><text x="618" y="181" font-size="10.5" fill="#8ec07c">"req_..."</text>
<text x="458" y="196" font-size="10.5" fill="#3a5a46">"status":</text><text x="507" y="196" font-size="10.5" fill="#ffc84a">404</text><text x="520" y="196" font-size="10.5" fill="#3a5a46">,"duration_ms":</text><text x="616" y="196" font-size="10.5" fill="#ffc84a">12</text><text x="625" y="196" font-size="10.5" fill="#3a5a46">}</text>

<rect x="450" y="200" width="352" height="13" rx="2" fill="#ff3b3b" fill-opacity="0.05"/>
<text x="458" y="211" font-size="10.5" fill="#3a5a46">{"level":</text><text x="513" y="211" font-size="10.5" fill="#ff5050">"error"</text><text x="545" y="211" font-size="10.5" fill="#3a5a46">,"status":</text><text x="596" y="211" font-size="10.5" fill="#ff3b3b">500</text>
<text x="458" y="226" font-size="10.5" fill="#3a5a46">"stack":</text><text x="504" y="226" font-size="10.5" fill="#8ec07c">"Error: ..."</text><text x="570" y="226" font-size="10.5" fill="#3a5a46">}</text>

<line x1="450" y1="244" x2="800" y2="244" stroke="#1c1c2e" stroke-width="0.6"/>
<text x="458" y="260" font-size="10" fill="#1a4030">One JSON line per event. Machine-readable.</text>
<text x="458" y="276" font-size="10" fill="#1a4030">Ingest into Datadog / CloudWatch / Loki</text>
<text x="458" y="292" font-size="10" fill="#1a4030">directly — no parsing needed.</text>
<text x="458" y="310" font-size="10" fill="#2a5a46">Passwords, tokens, cookies always</text>
<text x="458" y="326" font-size="10" fill="#2a5a46">[REDACTED] — auto, zero config.</text>

<!-- bottom stats -->
<rect x="50" y="326" width="760" height="40" rx="5" fill="#0a0a10" stroke="#1c1c2e" stroke-width="0.7"/>
<text x="156" y="341" text-anchor="middle" font-size="10" fill="#3a3a56" letter-spacing="0.8">AUTO SWITCH</text>
<text x="156" y="357" text-anchor="middle" font-size="10.5" fill="#00e5a0">NODE_ENV</text>
<line x1="230" y1="330" x2="230" y2="362" stroke="#1c1c2e" stroke-width="0.6"/>
<text x="362" y="341" text-anchor="middle" font-size="10" fill="#3a3a56" letter-spacing="0.8">PINO OPTIONAL</text>
<text x="362" y="357" text-anchor="middle" font-size="10.5" fill="#00e5a0">console fallback built-in</text>
<line x1="470" y1="330" x2="470" y2="362" stroke="#1c1c2e" stroke-width="0.6"/>
<text x="598" y="341" text-anchor="middle" font-size="10" fill="#3a3a56" letter-spacing="0.8">REDACTION</text>
<text x="598" y="357" text-anchor="middle" font-size="10.5" fill="#00e5a0">passwords never logged</text>
<line x1="706" y1="330" x2="706" y2="362" stroke="#1c1c2e" stroke-width="0.6"/>
<text x="783" y="341" text-anchor="middle" font-size="10" fill="#3a3a56" letter-spacing="0.8">REQUEST ID</text>
<text x="783" y="357" text-anchor="middle" font-size="10.5" fill="#00e5a0">every request</text>

<!-- border accents -->
<line x1="50" y1="382" x2="810" y2="382" stroke="#1c1c2e" stroke-width="0.8"/>
<circle cx="50"  cy="382" r="2" fill="#ff3b3b" fill-opacity="0.4"/>
<circle cx="810" cy="382" r="2" fill="#00e5a0" fill-opacity="0.4"/>
<text x="430" y="396" text-anchor="middle" font-size="9" fill="#1c1c2e" letter-spacing="1">shapeguard · npmjs.com/package/shapeguard</text>
</svg>
