<svg viewBox="0 0 860 1020" xmlns="http://www.w3.org/2000/svg" font-family="'JetBrains Mono','Fira Code','Consolas',monospace">
<defs>
  <linearGradient id="bg" x1="0" y1="0" x2="0" y2="1">
    <stop offset="0%" stop-color="#0b0b14"/>
    <stop offset="100%" stop-color="#0e0e1a"/>
  </linearGradient>
  <linearGradient id="hdr" x1="0" y1="0" x2="1" y2="0">
    <stop offset="0%" stop-color="#ff3b3b" stop-opacity="0.12"/>
    <stop offset="50%" stop-color="#0b0b14" stop-opacity="0"/>
    <stop offset="100%" stop-color="#00e5a0" stop-opacity="0.12"/>
  </linearGradient>
  <linearGradient id="titleg" x1="0" y1="0" x2="1" y2="0">
    <stop offset="0%" stop-color="#ff7070"/>
    <stop offset="42%" stop-color="#666680"/>
    <stop offset="100%" stop-color="#00e5a0"/>
  </linearGradient>
  <linearGradient id="badpanel" x1="0" y1="0" x2="0" y2="1">
    <stop offset="0%" stop-color="#130808"/>
    <stop offset="100%" stop-color="#0d0606"/>
  </linearGradient>
  <linearGradient id="goodpanel" x1="0" y1="0" x2="0" y2="1">
    <stop offset="0%" stop-color="#06100a"/>
    <stop offset="100%" stop-color="#040d07"/>
  </linearGradient>
  <pattern id="dots" width="24" height="24" patternUnits="userSpaceOnUse">
    <circle cx="12" cy="12" r="0.8" fill="#00e5a0" fill-opacity="0.07"/>
  </pattern>
  <filter id="glow">
    <feGaussianBlur stdDeviation="2.5" result="b"/>
    <feMerge><feMergeNode in="b"/><feMergeNode in="SourceGraphic"/></feMerge>
  </filter>
</defs>

<!-- ── BACKGROUND ── -->
<rect width="860" height="1020" rx="14" fill="url(#bg)"/>
<rect width="860" height="1020" rx="14" fill="url(#dots)"/>
<rect width="860" height="1020" rx="14" fill="none" stroke="#1c1c2e" stroke-width="1.5"/>
<!-- top glow band -->
<rect width="860" height="130" rx="14" fill="url(#hdr)"/>

<!-- ════════════════════════════════════
     HEADER
════════════════════════════════════ -->
<!-- shield -->
<g transform="translate(430,38)">
  <polygon points="0,-14 12,-7 12,7 0,14 -12,7 -12,-7" fill="none" stroke="#00e5a0" stroke-width="1.4" stroke-opacity="0.9"/>
  <polygon points="0,-7 6,-3.5 6,3.5 0,7 -6,3.5 -6,-3.5" fill="#00e5a0" fill-opacity="0.18"/>
  <text x="0" y="4" text-anchor="middle" font-size="7.5" fill="#00e5a0" font-weight="700">SG</text>
</g>

<!-- main title -->
<text x="430" y="82" text-anchor="middle" font-size="23" font-weight="700" fill="url(#titleg)" letter-spacing="-0.4">Normal Express  ↔  shapeguard</text>
<text x="430" y="100" text-anchor="middle" font-size="11" fill="#3a3a56" letter-spacing="2.5">SAME APP · LESS CODE · MORE SAFETY · v0.3.0</text>

<!-- divider -->
<line x1="50" y1="116" x2="810" y2="116" stroke="#1c1c2e" stroke-width="1"/>
<circle cx="50"  cy="116" r="2.5" fill="#ff3b3b" filter="url(#glow)"/>
<circle cx="810" cy="116" r="2.5" fill="#00e5a0" filter="url(#glow)"/>

<!-- ════════════════════════════════════
     COLUMN HEADERS
════════════════════════════════════ -->
<!-- bad header -->
<rect x="50" y="126" width="370" height="30" rx="5" fill="#180808" stroke="#ff3b3b" stroke-width="0.8" stroke-opacity="0.5"/>
<circle cx="68" cy="141" r="5" fill="#ff3b3b" filter="url(#glow)"/>
<text x="82" y="146" font-size="11.5" fill="#ff7070" font-weight="600" letter-spacing="0.8">NORMAL EXPRESS</text>
<text x="408" y="146" font-size="10" fill="#4a1a1a" text-anchor="end">~85 lines</text>

<!-- vs badge -->
<rect x="425" y="131" width="54" height="20" rx="10" fill="#10101c" stroke="#252540" stroke-width="1"/>
<text x="452" y="145" text-anchor="middle" font-size="10.5" fill="#44446a" font-weight="700">VS</text>

<!-- good header -->
<rect x="484" y="126" width="376" height="30" rx="5" fill="#041209" stroke="#00e5a0" stroke-width="0.8" stroke-opacity="0.5"/>
<circle cx="502" cy="141" r="5" fill="#00e5a0" filter="url(#glow)"/>
<text x="516" y="146" font-size="11.5" fill="#00e5a0" font-weight="600" letter-spacing="0.8">SHAPEGUARD v0.3.0</text>
<text x="848" y="146" font-size="10" fill="#1a4030" text-anchor="end">~28 lines</text>

<!-- ════════════════════════════════════
     SECTION 01 — APP SETUP
════════════════════════════════════ -->
<!-- label -->
<rect x="50" y="168" width="114" height="17" rx="3" fill="#10101c" stroke="#252540" stroke-width="0.7"/>
<text x="107" y="180" text-anchor="middle" font-size="9.5" fill="#44446a" letter-spacing="1.5">01 / SETUP</text>

<!-- BAD panel 1 -->
<rect x="50" y="190" width="370" height="128" rx="5" fill="url(#badpanel)" stroke="#ff3b3b" stroke-width="0.7" stroke-opacity="0.35"/>
<!-- line number gutter -->
<rect x="50" y="190" width="28" height="128" rx="5" fill="#0e0505" fill-opacity="0.6"/>

<text x="63"  y="209" text-anchor="middle" font-size="9" fill="#2e1010">1</text>
<text x="87"  y="209" font-size="11.5" fill="#c792ea">import </text><text x="133" y="209" font-size="11.5" fill="#90c090">morgan </text><text x="183" y="209" font-size="11.5" fill="#c792ea">from </text><text x="217" y="209" font-size="11.5" fill="#8ec07c">'morgan'</text>

<text x="63"  y="226" text-anchor="middle" font-size="9" fill="#2e1010">2</text>
<text x="87"  y="226" font-size="11.5" fill="#c792ea">import </text><text x="133" y="226" font-size="11.5" fill="#90c090">{ v4 as uuid } </text><text x="222" y="226" font-size="11.5" fill="#c792ea">from </text><text x="256" y="226" font-size="11.5" fill="#8ec07c">'uuid'</text>

<!-- highlighted bad lines -->
<rect x="80" y="231" width="334" height="30" rx="2" fill="#ff3b3b" fill-opacity="0.08"/>
<text x="63"  y="245" text-anchor="middle" font-size="9" fill="#2e1010">3</text>
<text x="87"  y="245" font-size="11.5" fill="#ff8585">app.use((req,_,next)=&gt;{ req.id=uuid(); next() })</text>
<text x="63"  y="262" text-anchor="middle" font-size="9" fill="#2e1010">4</text>
<text x="87"  y="262" font-size="11.5" fill="#ff8585">app.use(morgan('dev'))</text><text x="228" y="262" font-size="11" fill="#3a1a1a">  // no requestId in logs</text>

<rect x="80" y="267" width="334" height="30" rx="2" fill="#ff3b3b" fill-opacity="0.08"/>
<text x="63"  y="281" text-anchor="middle" font-size="9" fill="#2e1010">5</text>
<text x="87"  y="281" font-size="11.5" fill="#ff8585">app.use((_,res)=&gt;res.status(404).json({...}))</text>
<text x="63"  y="298" text-anchor="middle" font-size="9" fill="#2e1010">6</text>
<text x="87"  y="298" font-size="11.5" fill="#ff8585">app.use((err,_,res,_)=&gt;res.status(err.status||500)...</text>

<!-- GOOD panel 1 -->
<rect x="484" y="190" width="376" height="128" rx="5" fill="url(#goodpanel)" stroke="#00e5a0" stroke-width="0.7" stroke-opacity="0.35"/>
<rect x="484" y="190" width="28" height="128" rx="5" fill="#030a06" fill-opacity="0.6"/>

<text x="497" y="209" text-anchor="middle" font-size="9" fill="#0e2e1c">1</text>
<text x="521" y="209" font-size="11.5" fill="#c792ea">import </text><text x="567" y="209" font-size="11.5" fill="#90c090">express </text><text x="620" y="209" font-size="11.5" fill="#c792ea">from </text><text x="654" y="209" font-size="11.5" fill="#8ec07c">'express'</text>

<text x="497" y="226" text-anchor="middle" font-size="9" fill="#0e2e1c">2</text>
<text x="521" y="226" font-size="11.5" fill="#c792ea">import </text><text x="567" y="226" font-size="11.5" fill="#90c090">{ shapeguard, notFoundHandler,</text>
<text x="497" y="243" text-anchor="middle" font-size="9" fill="#0e2e1c">3</text>
<text x="521" y="243" font-size="11.5" fill="#90c090">  errorHandler } </text><text x="648" y="243" font-size="11.5" fill="#c792ea">from </text><text x="682" y="243" font-size="11.5" fill="#8ec07c">'shapeguard'</text>

<!-- highlighted good lines -->
<rect x="496" y="249" width="356" height="30" rx="2" fill="#00e5a0" fill-opacity="0.07"/>
<text x="497" y="263" text-anchor="middle" font-size="9" fill="#0e2e1c">4</text>
<text x="521" y="263" font-size="11.5" fill="#80ffcc">app.use(shapeguard())</text><text x="678" y="263" font-size="11" fill="#1a4030">  // all-in-one ✓</text>
<text x="497" y="280" text-anchor="middle" font-size="9" fill="#0e2e1c">5</text>
<text x="521" y="280" font-size="11.5" fill="#80ffcc">app.use(notFoundHandler())</text>

<rect x="496" y="285" width="356" height="30" rx="2" fill="#00e5a0" fill-opacity="0.07"/>
<text x="497" y="299" text-anchor="middle" font-size="9" fill="#0e2e1c">6</text>
<text x="521" y="299" font-size="11.5" fill="#80ffcc">app.use(errorHandler())</text><text x="680" y="299" font-size="11" fill="#1a4030">  // auto error shape ✓</text>

<!-- ════════════════════════════════════
     SECTION 02 — VALIDATION
════════════════════════════════════ -->
<rect x="50" y="334" width="130" height="17" rx="3" fill="#10101c" stroke="#252540" stroke-width="0.7"/>
<text x="115" y="346" text-anchor="middle" font-size="9.5" fill="#44446a" letter-spacing="1.5">02 / VALIDATION</text>

<!-- BAD panel 2 -->
<rect x="50" y="356" width="370" height="158" rx="5" fill="url(#badpanel)" stroke="#ff3b3b" stroke-width="0.7" stroke-opacity="0.35"/>
<rect x="50" y="356" width="28" height="158" rx="5" fill="#0e0505" fill-opacity="0.6"/>

<text x="63"  y="375" text-anchor="middle" font-size="9" fill="#2e1010">1</text>
<text x="87"  y="375" font-size="11" fill="#3a3a56">// Manual field-by-field checks everywhere</text>

<rect x="80" y="380" width="334" height="47" rx="2" fill="#ff3b3b" fill-opacity="0.08"/>
<text x="63"  y="394" text-anchor="middle" font-size="9" fill="#2e1010">2</text>
<text x="87"  y="394" font-size="11.5" fill="#c792ea">if </text><text x="105" y="394" font-size="11.5" fill="#ff8585">(!req.body.email)</text>
<text x="63"  y="411" text-anchor="middle" font-size="9" fill="#2e1010">3</text>
<text x="87"  y="411" font-size="11.5" fill="#ff8585">  return res.status(400).json({message:'required'})</text>
<text x="63"  y="428" text-anchor="middle" font-size="9" fill="#2e1010">4</text>
<text x="87"  y="428" font-size="11.5" fill="#c792ea">if </text><text x="105" y="428" font-size="11.5" fill="#ff8585">(!req.body.password || pw.length&lt;8)...</text>

<rect x="80" y="434" width="334" height="30" rx="2" fill="#ff3b3b" fill-opacity="0.08"/>
<text x="63"  y="448" text-anchor="middle" font-size="9" fill="#2e1010">5</text>
<text x="87"  y="448" font-size="11" fill="#3a3a56">// req.body is 'any' — no IDE help ⚠</text>
<text x="63"  y="465" text-anchor="middle" font-size="9" fill="#2e1010">6</text>
<text x="87"  y="465" font-size="11" fill="#3a3a56">// passwordHash can leak to client ⚠</text>

<text x="63"  y="499" text-anchor="middle" font-size="9" fill="#2e1010">7</text>
<text x="87"  y="499" font-size="11.5" fill="#ff8585">res.status(201).json({ data: user })</text>

<!-- GOOD panel 2 -->
<rect x="484" y="356" width="376" height="158" rx="5" fill="url(#goodpanel)" stroke="#00e5a0" stroke-width="0.7" stroke-opacity="0.35"/>
<rect x="484" y="356" width="28" height="158" rx="5" fill="#030a06" fill-opacity="0.6"/>

<text x="497" y="375" text-anchor="middle" font-size="9" fill="#0e2e1c">1</text>
<text x="521" y="375" font-size="11" fill="#3a5a46">// Define schema ONCE — type-safe everywhere</text>

<rect x="496" y="380" width="356" height="64" rx="2" fill="#00e5a0" fill-opacity="0.07"/>
<text x="497" y="394" text-anchor="middle" font-size="9" fill="#0e2e1c">2</text>
<text x="521" y="394" font-size="11.5" fill="#c792ea">const </text><text x="561" y="394" font-size="11.5" fill="#80ffcc">DTO </text><text x="593" y="394" font-size="11.5" fill="#e8e8ff">= createDTO(z.object({</text>
<text x="497" y="411" text-anchor="middle" font-size="9" fill="#0e2e1c">3</text>
<text x="521" y="411" font-size="11.5" fill="#a8d1f0">  email    </text><text x="590" y="411" font-size="11.5" fill="#e8e8ff">: z.string().email(),</text>
<text x="497" y="428" text-anchor="middle" font-size="9" fill="#0e2e1c">4</text>
<text x="521" y="428" font-size="11.5" fill="#a8d1f0">  password </text><text x="590" y="428" font-size="11.5" fill="#e8e8ff">: z.string().min(8) }))</text>

<text x="497" y="448" text-anchor="middle" font-size="9" fill="#0e2e1c">5</text>
<text x="521" y="448" font-size="11.5" fill="#c792ea">const </text><text x="561" y="448" font-size="11.5" fill="#80ffcc">Route </text><text x="601" y="448" font-size="11.5" fill="#e8e8ff">= defineRoute({ body: DTO,</text>
<text x="497" y="465" text-anchor="middle" font-size="9" fill="#0e2e1c">6</text>
<text x="521" y="465" font-size="11.5" fill="#e8e8ff">  response: UserSchema })</text>

<rect x="496" y="470" width="356" height="30" rx="2" fill="#00e5a0" fill-opacity="0.07"/>
<text x="497" y="484" text-anchor="middle" font-size="9" fill="#0e2e1c">7</text>
<text x="521" y="484" font-size="11" fill="#3a5a46">// ✓ req.body fully typed  ✓ passwordHash auto-stripped</text>
<text x="497" y="501" text-anchor="middle" font-size="9" fill="#0e2e1c">8</text>
<text x="521" y="501" font-size="11.5" fill="#80ffcc">res.created</text><text x="591" y="501" font-size="11.5" fill="#e8e8ff">({ data: user, message: </text><text x="730" y="501" font-size="11.5" fill="#8ec07c">'Created' </text><text x="784" y="501" font-size="11.5" fill="#e8e8ff">})</text>

<!-- ════════════════════════════════════
     SECTION 03 — ERROR HANDLING
════════════════════════════════════ -->
<rect x="50" y="530" width="150" height="17" rx="3" fill="#10101c" stroke="#252540" stroke-width="0.7"/>
<text x="125" y="542" text-anchor="middle" font-size="9.5" fill="#44446a" letter-spacing="1.5">03 / ERROR HANDLING</text>

<!-- BAD panel 3 -->
<rect x="50" y="552" width="370" height="128" rx="5" fill="url(#badpanel)" stroke="#ff3b3b" stroke-width="0.7" stroke-opacity="0.35"/>
<rect x="50" y="552" width="28" height="128" rx="5" fill="#0e0505" fill-opacity="0.6"/>

<rect x="80" y="556" width="334" height="47" rx="2" fill="#ff3b3b" fill-opacity="0.08"/>
<text x="63" y="572" text-anchor="middle" font-size="9" fill="#2e1010">1</text>
<text x="87" y="572" font-size="11.5" fill="#c792ea">const </text><text x="127" y="572" font-size="11.5" fill="#e8e8ff">err = </text><text x="163" y="572" font-size="11.5" fill="#c792ea">new </text><text x="191" y="572" font-size="11.5" fill="#ff8585">Error</text><text x="225" y="572" font-size="11.5" fill="#e8e8ff">('Email already exists')</text>
<text x="63" y="589" text-anchor="middle" font-size="9" fill="#2e1010">2</text>
<text x="87" y="589" font-size="11.5" fill="#ff8585">err.status = 409</text><text x="200" y="589" font-size="11" fill="#3a1a1a">  // each dev invents their own</text>

<text x="63" y="609" text-anchor="middle" font-size="9" fill="#2e1010">3</text>
<text x="87" y="609" font-size="11" fill="#3a3a56">// DB crash message leaks to client! ⚠</text>

<rect x="80" y="615" width="334" height="30" rx="2" fill="#ff3b3b" fill-opacity="0.08"/>
<text x="63" y="629" text-anchor="middle" font-size="9" fill="#2e1010">4</text>
<text x="87" y="629" font-size="11.5" fill="#ff8585">res.status(500).json({ message: err.message })</text>
<text x="63" y="663" text-anchor="middle" font-size="9" fill="#2e1010">5</text>
<text x="87" y="663" font-size="11" fill="#3a1a1a">// Different shape on every route ⚠</text>

<!-- GOOD panel 3 -->
<rect x="484" y="552" width="376" height="128" rx="5" fill="url(#goodpanel)" stroke="#00e5a0" stroke-width="0.7" stroke-opacity="0.35"/>
<rect x="484" y="552" width="28" height="128" rx="5" fill="#030a06" fill-opacity="0.6"/>

<rect x="496" y="556" width="356" height="64" rx="2" fill="#00e5a0" fill-opacity="0.07"/>
<text x="497" y="572" text-anchor="middle" font-size="9" fill="#0e2e1c">1</text>
<text x="521" y="572" font-size="11.5" fill="#80ffcc">AppError.conflict</text><text x="647" y="572" font-size="11.5" fill="#e8e8ff">(</text><text x="653" y="572" font-size="11.5" fill="#8ec07c">'Email'</text><text x="697" y="572" font-size="11.5" fill="#e8e8ff">)</text><text x="707" y="572" font-size="11" fill="#1a4030">  // → 409</text>
<text x="497" y="589" text-anchor="middle" font-size="9" fill="#0e2e1c">2</text>
<text x="521" y="589" font-size="11.5" fill="#80ffcc">AppError.unauthorized</text><text x="669" y="589" font-size="11.5" fill="#e8e8ff">()</text><text x="689" y="589" font-size="11" fill="#1a4030">   // → 401</text>
<text x="497" y="606" text-anchor="middle" font-size="9" fill="#0e2e1c">3</text>
<text x="521" y="606" font-size="11.5" fill="#80ffcc">AppError.notFound</text><text x="649" y="606" font-size="11.5" fill="#e8e8ff">()</text><text x="669" y="606" font-size="11" fill="#1a4030">        // → 404</text>

<text x="497" y="626" text-anchor="middle" font-size="9" fill="#0e2e1c">4</text>
<text x="521" y="626" font-size="11" fill="#3a5a46">// crashes → "Something went wrong" in prod ✓</text>
<text x="497" y="643" text-anchor="middle" font-size="9" fill="#0e2e1c">5</text>
<text x="521" y="643" font-size="11" fill="#3a5a46">// full stack trace → logger only ✓</text>

<rect x="496" y="648" width="356" height="30" rx="2" fill="#00e5a0" fill-opacity="0.07"/>
<text x="497" y="664" text-anchor="middle" font-size="9" fill="#0e2e1c">6</text>
<text x="521" y="664" font-size="11" fill="#3a5a46">// Every route, every error — ONE shape always ✓</text>

<!-- ════════════════════════════════════
     SECTION 04 — NEW IN v0.3.0
════════════════════════════════════ -->
<rect x="50" y="700" width="190" height="17" rx="3" fill="#10101c" stroke="#252540" stroke-width="0.7"/>
<text x="145" y="712" text-anchor="middle" font-size="9.5" fill="#44446a" letter-spacing="1.5">04 / NEW IN v0.3.0</text>

<!-- BAD panel 4 -->
<rect x="50" y="722" width="370" height="112" rx="5" fill="url(#badpanel)" stroke="#ff3b3b" stroke-width="0.7" stroke-opacity="0.35"/>
<rect x="50" y="722" width="28" height="112" rx="5" fill="#0e0505" fill-opacity="0.6"/>

<text x="63"  y="741" text-anchor="middle" font-size="9" fill="#2e1010">1</text>
<text x="87"  y="741" font-size="11" fill="#3a3a56">// openapi.yaml — written by hand, gets stale</text>
<rect x="80" y="746" width="334" height="47" rx="2" fill="#ff3b3b" fill-opacity="0.08"/>
<text x="63"  y="760" text-anchor="middle" font-size="9" fill="#2e1010">2</text>
<text x="87"  y="760" font-size="11.5" fill="#ff8585">paths:</text>
<text x="63"  y="777" text-anchor="middle" font-size="9" fill="#2e1010">3</text>
<text x="87"  y="777" font-size="11.5" fill="#ff8585">  /users:</text>
<text x="63"  y="794" text-anchor="middle" font-size="9" fill="#2e1010">4</text>
<text x="87"  y="794" font-size="11.5" fill="#ff8585">    post:  </text><text x="147" y="794" font-size="11" fill="#3a1a1a">  # duplicated from your code 😩</text>

<text x="63"  y="821" text-anchor="middle" font-size="9" fill="#2e1010">5</text>
<text x="87"  y="821" font-size="11" fill="#3a3a56">// Testing needs full HTTP stack (supertest)</text>

<!-- GOOD panel 4 -->
<rect x="484" y="722" width="376" height="112" rx="5" fill="url(#goodpanel)" stroke="#00e5a0" stroke-width="0.7" stroke-opacity="0.35"/>
<rect x="484" y="722" width="28" height="112" rx="5" fill="#030a06" fill-opacity="0.6"/>

<rect x="496" y="726" width="356" height="47" rx="2" fill="#00e5a0" fill-opacity="0.07"/>
<text x="497" y="741" text-anchor="middle" font-size="9" fill="#0e2e1c">1</text>
<text x="521" y="741" font-size="11.5" fill="#c792ea">const </text><text x="561" y="741" font-size="11.5" fill="#80ffcc">spec </text><text x="597" y="741" font-size="11.5" fill="#e8e8ff">= generateOpenAPI({</text>
<text x="497" y="758" text-anchor="middle" font-size="9" fill="#0e2e1c">2</text>
<text x="521" y="758" font-size="11.5" fill="#e8e8ff">  routes: { </text><text x="587" y="758" font-size="11.5" fill="#8ec07c">'POST /users'</text><text x="675" y="758" font-size="11.5" fill="#e8e8ff">: CreateRoute } })</text>
<text x="497" y="775" text-anchor="middle" font-size="9" fill="#0e2e1c">3</text>
<text x="521" y="775" font-size="11" fill="#3a5a46">// ✓ Full OpenAPI 3.1 — zero duplication</text>

<rect x="496" y="781" width="356" height="47" rx="2" fill="#00e5a0" fill-opacity="0.07"/>
<text x="497" y="796" text-anchor="middle" font-size="9" fill="#0e2e1c">4</text>
<text x="521" y="796" font-size="11.5" fill="#c792ea">const </text><text x="561" y="796" font-size="11.5" fill="#80ffcc">req </text><text x="591" y="796" font-size="11.5" fill="#e8e8ff">= mockRequest({ body: { email: </text><text x="762" y="796" font-size="11.5" fill="#8ec07c">'a@b.c'</text><text x="806" y="796" font-size="11.5" fill="#e8e8ff"> } })</text>
<text x="497" y="813" text-anchor="middle" font-size="9" fill="#0e2e1c">5</text>
<text x="521" y="813" font-size="11.5" fill="#80ffcc">res._result</text><text x="589" y="813" font-size="11.5" fill="#e8e8ff">().statusCode </text><text x="680" y="813" font-size="11.5" fill="#3a5a46">// no HTTP needed ✓</text>

<!-- ════════════════════════════════════
     BOTTOM STATS BAR
════════════════════════════════════ -->
<rect x="50" y="858" width="760" height="1" fill="#1c1c2e"/>

<!-- stat 1 -->
<rect x="50"  y="866" width="176" height="50" rx="5" fill="#0e0505" stroke="#1c1c2e" stroke-width="0.7"/>
<text x="138"  y="890" text-anchor="middle" font-size="24" fill="#ff3b3b" font-weight="700">87</text>
<text x="138"  y="907" text-anchor="middle" font-size="9" fill="#3a3a56" letter-spacing="1.2">EXPRESS LINES</text>

<!-- stat 2 -->
<rect x="238" y="866" width="176" height="50" rx="5" fill="#040d07" stroke="#1c1c2e" stroke-width="0.7"/>
<text x="326"  y="890" text-anchor="middle" font-size="24" fill="#00e5a0" font-weight="700">28</text>
<text x="326"  y="907" text-anchor="middle" font-size="9" fill="#3a3a56" letter-spacing="1.2">SHAPEGUARD LINES</text>

<!-- stat 3 -->
<rect x="426" y="866" width="176" height="50" rx="5" fill="#0c0c0a" stroke="#1c1c2e" stroke-width="0.7"/>
<text x="514"  y="890" text-anchor="middle" font-size="24" fill="#ffc84a" font-weight="700">68%</text>
<text x="514"  y="907" text-anchor="middle" font-size="9" fill="#3a3a56" letter-spacing="1.2">LESS BOILERPLATE</text>

<!-- stat 4 -->
<rect x="614" y="866" width="196" height="50" rx="5" fill="#040d07" stroke="#1c1c2e" stroke-width="0.7"/>
<text x="712"  y="890" text-anchor="middle" font-size="24" fill="#00e5a0" font-weight="700">0</text>
<text x="712"  y="907" text-anchor="middle" font-size="9" fill="#3a3a56" letter-spacing="1.2">RUNTIME DEPS ADDED</text>

<!-- ════════════════════════════════════
     FOOTER
════════════════════════════════════ -->
<text x="430" y="950" text-anchor="middle" font-size="9.5" fill="#252540">npm install shapeguard zod</text>
<text x="430" y="966" text-anchor="middle" font-size="9" fill="#1c1c2e" letter-spacing="1">npmjs.com/package/shapeguard  ·  MIT  ·  Node 18+  ·  TypeScript  ·  Zero deps</text>

<!-- accent line at bottom -->
<line x1="50" y1="978" x2="810" y2="978" stroke="#1c1c2e" stroke-width="0.8"/>
<circle cx="50"  cy="978" r="2" fill="#ff3b3b" fill-opacity="0.5"/>
<circle cx="810" cy="978" r="2" fill="#00e5a0" fill-opacity="0.5"/>

</svg>
